<svg width="3000" height="2400" xmlns="http://www.w3.org/2000/svg" xmlns:xlink="http://www.w3.org/1999/xlink" version="1.1" baseProfile="full" viewBox="0 0 3000 2400">
<rect width="3000" height="2400" x="0" y="0" fill="rgb(255,255,255)" fill-opacity="0"></rect>
<path d="M300 2160.5L2700 2160.5" fill="transparent" stroke="#eeeeee" class="zr0-cls-0"></path>
<path d="M300 2046.5L2700 2046.5" fill="transparent" stroke="#eeeeee" class="zr0-cls-0"></path>
<path d="M300 1933.5L2700 1933.5" fill="transparent" stroke="#eeeeee" class="zr0-cls-0"></path>
<path d="M300 1820.5L2700 1820.5" fill="transparent" stroke="#eeeeee" class="zr0-cls-0"></path>
<path d="M300 1706.5L2700 1706.5" fill="transparent" stroke="#eeeeee" class="zr0-cls-0"></path>
<path d="M300 1593.5L2700 1593.5" fill="transparent" stroke="#eeeeee" class="zr0-cls-0"></path>
<path d="M300 1480.5L2700 1480.5" fill="transparent" stroke="#eeeeee" class="zr0-cls-0"></path>
<path d="M300 1366.5L2700 1366.5" fill="transparent" stroke="#eeeeee" class="zr0-cls-0"></path>
<path d="M300 1253.5L2700 1253.5" fill="transparent" stroke="#eeeeee" class="zr0-cls-0"></path>
<path d="M300 1140.5L2700 1140.5" fill="transparent" stroke="#eeeeee" class="zr0-cls-0"></path>
<path d="M300 1026.5L2700 1026.5" fill="transparent" stroke="#eeeeee" class="zr0-cls-0"></path>
<path d="M300 913.5L2700 913.5" fill="transparent" stroke="#eeeeee" class="zr0-cls-0"></path>
<path d="M300 800.5L2700 800.5" fill="transparent" stroke="#eeeeee" class="zr0-cls-0"></path>
<path d="M300 686.5L2700 686.5" fill="transparent" stroke="#eeeeee" class="zr0-cls-0"></path>
<path d="M300 573.5L2700 573.5" fill="transparent" stroke="#eeeeee" class="zr0-cls-0"></path>
<path d="M300 460.5L2700 460.5" fill="transparent" stroke="#eeeeee" class="zr0-cls-0"></path>
<path d="M300 346.5L2700 346.5" fill="transparent" stroke="#eeeeee" class="zr0-cls-0"></path>
<path d="M300 233.5L2700 233.5" fill="transparent" stroke="#eeeeee" class="zr0-cls-0"></path>
<path d="M300 120.5L2700 120.5" fill="transparent" stroke="#eeeeee" class="zr0-cls-0"></path>
<path d="M300.5 120L300.5 2160" fill="transparent" stroke="#eeeeee" class="zr0-cls-0"></path>
<path d="M380.5 120L380.5 2160" fill="transparent" stroke="#eeeeee" class="zr0-cls-0"></path>
<path d="M460.5 120L460.5 2160" fill="transparent" stroke="#eeeeee" class="zr0-cls-0"></path>
<path d="M540.5 120L540.5 2160" fill="transparent" stroke="#eeeeee" class="zr0-cls-0"></path>
<path d="M620.5 120L620.5 2160" fill="transparent" stroke="#eeeeee" class="zr0-cls-0"></path>
<path d="M700.5 120L700.5 2160" fill="transparent" stroke="#eeeeee" class="zr0-cls-0"></path>
<path d="M780.5 120L780.5 2160" fill="transparent" stroke="#eeeeee" class="zr0-cls-0"></path>
<path d="M860.5 120L860.5 2160" fill="transparent" stroke="#eeeeee" class="zr0-cls-0"></path>
<path d="M940.5 120L940.5 2160" fill="transparent" stroke="#eeeeee" class="zr0-cls-0"></path>
<path d="M1020.5 120L1020.5 2160" fill="transparent" stroke="#eeeeee" class="zr0-cls-0"></path>
<path d="M1100.5 120L1100.5 2160" fill="transparent" stroke="#eeeeee" class="zr0-cls-0"></path>
<path d="M1180.5 120L1180.5 2160" fill="transparent" stroke="#eeeeee" class="zr0-cls-0"></path>
<path d="M1260.5 120L1260.5 2160" fill="transparent" stroke="#eeeeee" class="zr0-cls-0"></path>
<path d="M1340.5 120L1340.5 2160" fill="transparent" stroke="#eeeeee" class="zr0-cls-0"></path>
<path d="M1420.5 120L1420.5 2160" fill="transparent" stroke="#eeeeee" class="zr0-cls-0"></path>
<path d="M1500.5 120L1500.5 2160" fill="transparent" stroke="#eeeeee" class="zr0-cls-0"></path>
<path d="M1580.5 120L1580.5 2160" fill="transparent" stroke="#eeeeee" class="zr0-cls-0"></path>
<path d="M1660.5 120L1660.5 2160" fill="transparent" stroke="#eeeeee" class="zr0-cls-0"></path>
<path d="M1740.5 120L1740.5 2160" fill="transparent" stroke="#eeeeee" class="zr0-cls-0"></path>
<path d="M1820.5 120L1820.5 2160" fill="transparent" stroke="#eeeeee" class="zr0-cls-0"></path>
<path d="M1900.5 120L1900.5 2160" fill="transparent" stroke="#eeeeee" class="zr0-cls-0"></path>
<path d="M1980.5 120L1980.5 2160" fill="transparent" stroke="#eeeeee" class="zr0-cls-0"></path>
<path d="M2060.5 120L2060.5 2160" fill="transparent" stroke="#eeeeee" class="zr0-cls-0"></path>
<path d="M2140.5 120L2140.5 2160" fill="transparent" stroke="#eeeeee" class="zr0-cls-0"></path>
<path d="M2220.5 120L2220.5 2160" fill="transparent" stroke="#eeeeee" class="zr0-cls-0"></path>
<path d="M2300.5 120L2300.5 2160" fill="transparent" stroke="#eeeeee" class="zr0-cls-0"></path>
<path d="M2380.5 120L2380.5 2160" fill="transparent" stroke="#eeeeee" class="zr0-cls-0"></path>
<path d="M2460.5 120L2460.5 2160" fill="transparent" stroke="#eeeeee" class="zr0-cls-0"></path>
<path d="M2540.5 120L2540.5 2160" fill="transparent" stroke="#eeeeee" class="zr0-cls-0"></path>
<path d="M2620.5 120L2620.5 2160" fill="transparent" stroke="#eeeeee" class="zr0-cls-0"></path>
<path d="M2700.5 120L2700.5 2160" fill="transparent" stroke="#eeeeee" class="zr0-cls-0"></path>
<path d="M300.5 2160L300.5 120" fill="transparent" stroke="#cccccc" stroke-linecap="round" class="zr0-cls-0"></path>
<text dominant-baseline="central" text-anchor="middle" style="font-size:40px;font-family:sans-serif;" xml:space="preserve" y="-20" transform="matrix(0,-1,1,0,260,1140)" fill="#cccccc">Pitch (°)</text>
<path d="M300 1140.5L2700 1140.5" fill="transparent" stroke="#cccccc" stroke-linecap="round" class="zr0-cls-0"></path>
<text dominant-baseline="central" text-anchor="middle" style="font-size:50px;font-family:sans-serif;" y="25" transform="translate(1500 2220)" fill="#cccccc">Time</text>
<text dominant-baseline="central" text-anchor="end" style="font-size:40px;font-family:sans-serif;" transform="translate(292 2160)" fill="#999999">-90</text>
<text dominant-baseline="central" text-anchor="end" style="font-size:40px;font-family:sans-serif;" transform="translate(292 2046.6667)" fill="#999999">-80</text>
<text dominant-baseline="central" text-anchor="end" style="font-size:40px;font-family:sans-serif;" transform="translate(292 1933.3333)" fill="#999999">-70</text>
<text dominant-baseline="central" text-anchor="end" style="font-size:40px;font-family:sans-serif;" transform="translate(292 1820)" fill="#999999">-60</text>
<text dominant-baseline="central" text-anchor="end" style="font-size:40px;font-family:sans-serif;" transform="translate(292 1706.6667)" fill="#999999">-50</text>
<text dominant-baseline="central" text-anchor="end" style="font-size:40px;font-family:sans-serif;" transform="translate(292 1593.3333)" fill="#999999">-40</text>
<text dominant-baseline="central" text-anchor="end" style="font-size:40px;font-family:sans-serif;" transform="translate(292 1480)" fill="#999999">-30</text>
<text dominant-baseline="central" text-anchor="end" style="font-size:40px;font-family:sans-serif;" transform="translate(292 1366.6667)" fill="#999999">-20</text>
<text dominant-baseline="central" text-anchor="end" style="font-size:40px;font-family:sans-serif;" transform="translate(292 1253.3333)" fill="#999999">-10</text>
<text dominant-baseline="central" text-anchor="end" style="font-size:40px;font-family:sans-serif;" transform="translate(292 1140)" fill="#999999">0</text>
<text dominant-baseline="central" text-anchor="end" style="font-size:40px;font-family:sans-serif;" transform="translate(292 1026.6667)" fill="#999999">10</text>
<text dominant-baseline="central" text-anchor="end" style="font-size:40px;font-family:sans-serif;" transform="translate(292 913.3333)" fill="#999999">20</text>
<text dominant-baseline="central" text-anchor="end" style="font-size:40px;font-family:sans-serif;" transform="translate(292 800)" fill="#999999">30</text>
<text dominant-baseline="central" text-anchor="end" style="font-size:40px;font-family:sans-serif;" transform="translate(292 686.6667)" fill="#999999">40</text>
<text dominant-baseline="central" text-anchor="end" style="font-size:40px;font-family:sans-serif;" transform="translate(292 573.3333)" fill="#999999">50</text>
<text dominant-baseline="central" text-anchor="end" style="font-size:40px;font-family:sans-serif;" transform="translate(292 460)" fill="#999999">60</text>
<text dominant-baseline="central" text-anchor="end" style="font-size:40px;font-family:sans-serif;" transform="translate(292 346.6667)" fill="#999999">70</text>
<text dominant-baseline="central" text-anchor="end" style="font-size:40px;font-family:sans-serif;" transform="translate(292 233.3333)" fill="#999999">80</text>
<text dominant-baseline="central" text-anchor="end" style="font-size:40px;font-family:sans-serif;" transform="translate(292 120)" fill="#999999">90</text>
<text dominant-baseline="central" text-anchor="middle" style="font-size:40px;font-family:sans-serif;" y="20" transform="translate(340 2168)" fill="#999999">0</text>
<text dominant-baseline="central" text-anchor="middle" style="font-size:40px;font-family:sans-serif;" y="20" transform="translate(420 2168)" fill="#999999">1</text>
<text dominant-baseline="central" text-anchor="middle" style="font-size:40px;font-family:sans-serif;" y="20" transform="translate(500 2168)" fill="#999999">2</text>
<text dominant-baseline="central" text-anchor="middle" style="font-size:40px;font-family:sans-serif;" y="20" transform="translate(580 2168)" fill="#999999">3</text>
<text dominant-baseline="central" text-anchor="middle" style="font-size:40px;font-family:sans-serif;" y="20" transform="translate(660 2168)" fill="#999999">4</text>
<text dominant-baseline="central" text-anchor="middle" style="font-size:40px;font-family:sans-serif;" y="20" transform="translate(740 2168)" fill="#999999">5</text>
<text dominant-baseline="central" text-anchor="middle" style="font-size:40px;font-family:sans-serif;" y="20" transform="translate(820 2168)" fill="#999999">6</text>
<text dominant-baseline="central" text-anchor="middle" style="font-size:40px;font-family:sans-serif;" y="20" transform="translate(900 2168)" fill="#999999">7</text>
<text dominant-baseline="central" text-anchor="middle" style="font-size:40px;font-family:sans-serif;" y="20" transform="translate(980 2168)" fill="#999999">8</text>
<text dominant-baseline="central" text-anchor="middle" style="font-size:40px;font-family:sans-serif;" y="20" transform="translate(1060 2168)" fill="#999999">9</text>
<text dominant-baseline="central" text-anchor="middle" style="font-size:40px;font-family:sans-serif;" y="20" transform="translate(1140 2168)" fill="#999999">10</text>
<text dominant-baseline="central" text-anchor="middle" style="font-size:40px;font-family:sans-serif;" y="20" transform="translate(1220 2168)" fill="#999999">11</text>
<text dominant-baseline="central" text-anchor="middle" style="font-size:40px;font-family:sans-serif;" y="20" transform="translate(1300 2168)" fill="#999999">12</text>
<text dominant-baseline="central" text-anchor="middle" style="font-size:40px;font-family:sans-serif;" y="20" transform="translate(1380 2168)" fill="#999999">13</text>
<text dominant-baseline="central" text-anchor="middle" style="font-size:40px;font-family:sans-serif;" y="20" transform="translate(1460 2168)" fill="#999999">14</text>
<text dominant-baseline="central" text-anchor="middle" style="font-size:40px;font-family:sans-serif;" y="20" transform="translate(1540 2168)" fill="#999999">15</text>
<text dominant-baseline="central" text-anchor="middle" style="font-size:40px;font-family:sans-serif;" y="20" transform="translate(1620 2168)" fill="#999999">16</text>
<text dominant-baseline="central" text-anchor="middle" style="font-size:40px;font-family:sans-serif;" y="20" transform="translate(1700 2168)" fill="#999999">17</text>
<text dominant-baseline="central" text-anchor="middle" style="font-size:40px;font-family:sans-serif;" y="20" transform="translate(1780 2168)" fill="#999999">18</text>
<text dominant-baseline="central" text-anchor="middle" style="font-size:40px;font-family:sans-serif;" y="20" transform="translate(1860 2168)" fill="#999999">19</text>
<text dominant-baseline="central" text-anchor="middle" style="font-size:40px;font-family:sans-serif;" y="20" transform="translate(1940 2168)" fill="#999999">20</text>
<text dominant-baseline="central" text-anchor="middle" style="font-size:40px;font-family:sans-serif;" y="20" transform="translate(2020 2168)" fill="#999999">21</text>
<text dominant-baseline="central" text-anchor="middle" style="font-size:40px;font-family:sans-serif;" y="20" transform="translate(2100 2168)" fill="#999999">22</text>
<text dominant-baseline="central" text-anchor="middle" style="font-size:40px;font-family:sans-serif;" y="20" transform="translate(2180 2168)" fill="#999999">23</text>
<text dominant-baseline="central" text-anchor="middle" style="font-size:40px;font-family:sans-serif;" y="20" transform="translate(2260 2168)" fill="#999999">24</text>
<text dominant-baseline="central" text-anchor="middle" style="font-size:40px;font-family:sans-serif;" y="20" transform="translate(2340 2168)" fill="#999999">25</text>
<text dominant-baseline="central" text-anchor="middle" style="font-size:40px;font-family:sans-serif;" y="20" transform="translate(2420 2168)" fill="#999999">26</text>
<text dominant-baseline="central" text-anchor="middle" style="font-size:40px;font-family:sans-serif;" y="20" transform="translate(2500 2168)" fill="#999999">27</text>
<text dominant-baseline="central" text-anchor="middle" style="font-size:40px;font-family:sans-serif;" y="20" transform="translate(2580 2168)" fill="#999999">28</text>
<text dominant-baseline="central" text-anchor="middle" style="font-size:40px;font-family:sans-serif;" y="20" transform="translate(2660 2168)" fill="#999999">29</text>
<g clip-path="url(#zr0-c0)">
<path d="M340 259.8L420 389.7L500 509.9L580 588.3L660 682.1L740 775.9L820 822.4L900 876.6L980 891.2L1060 972.5L1140 993.3L1220 1024.2L1300 1036.4L1380 1043.2L1460 1084.3L1540 1060.5L1620 1055.8L1700 1074.7L1780 1078.2L1860 1098.2L1940 1092.8L2020 1138.7L2100 1114.2L2180 1139.7L2260 1109.5L2340 1123.3L2420 1154.3L2500 1124.9L2580 1136.5L2660 1122.6" fill="transparent" stroke="#4ea397" stroke-width="3" stroke-linejoin="bevel" class="zr0-cls-2"></path>
</g>
<g clip-path="url(#zr0-c1)">
<path d="M340 1140L420 490.9L500 313.8L580 614.2L660 1140L740 1565.9L820 1682.1L900 1485L980 1140L1060 860.6L1140 784.3L1220 913.7L1300 1140L1380 1323.3L1460 1373.3L1540 1288.5L1620 1140L1700 1019.7L1780 986.9L1860 1042.6L1940 1140L2020 1218.9L2100 1240.4L2180 1203.9L2260 1140L2340 1088.2L2420 1074.1L2500 1098.1L2580 1140L2660 1174" fill="transparent" stroke="#e91e63" stroke-width="5" stroke-linejoin="bevel" class="zr0-cls-2"></path>
</g>
<path d="M1 0A1 1 0 1 1 1 -0.1A1 1 0 0 1 1 0" transform="matrix(4,0,0,4,340,259.8494)" fill="#fff" stroke="#4ea397" stroke-width="0.5" ecmeta_series_index="0" ecmeta_data_index="0" ecmeta_ssr_type="chart" class="zr0-cls-3"></path>
<path d="M1 0A1 1 0 1 1 1 -0.1A1 1 0 0 1 1 0" transform="matrix(4,0,0,4,420,389.7166)" fill="#fff" stroke="#4ea397" stroke-width="0.5" ecmeta_series_index="0" ecmeta_data_index="1" ecmeta_ssr_type="chart" class="zr0-cls-3"></path>
<path d="M1 0A1 1 0 1 1 1 -0.1A1 1 0 0 1 1 0" transform="matrix(4,0,0,4,500,509.8586)" fill="#fff" stroke="#4ea397" stroke-width="0.5" ecmeta_series_index="0" ecmeta_data_index="2" ecmeta_ssr_type="chart" class="zr0-cls-3"></path>
<path d="M1 0A1 1 0 1 1 1 -0.1A1 1 0 0 1 1 0" transform="matrix(4,0,0,4,580,588.3301)" fill="#fff" stroke="#4ea397" stroke-width="0.5" ecmeta_series_index="0" ecmeta_data_index="3" ecmeta_ssr_type="chart" class="zr0-cls-3"></path>
<path d="M1 0A1 1 0 1 1 1 -0.1A1 1 0 0 1 1 0" transform="matrix(4,0,0,4,660,682.0803)" fill="#fff" stroke="#4ea397" stroke-width="0.5" ecmeta_series_index="0" ecmeta_data_index="4" ecmeta_ssr_type="chart" class="zr0-cls-3"></path>
<path d="M1 0A1 1 0 1 1 1 -0.1A1 1 0 0 1 1 0" transform="matrix(4,0,0,4,740,775.9412)" fill="#fff" stroke="#4ea397" stroke-width="0.5" ecmeta_series_index="0" ecmeta_data_index="5" ecmeta_ssr_type="chart" class="zr0-cls-3"></path>
<path d="M1 0A1 1 0 1 1 1 -0.1A1 1 0 0 1 1 0" transform="matrix(4,0,0,4,820,822.3659)" fill="#fff" stroke="#4ea397" stroke-width="0.5" ecmeta_series_index="0" ecmeta_data_index="6" ecmeta_ssr_type="chart" class="zr0-cls-3"></path>
<path d="M1 0A1 1 0 1 1 1 -0.1A1 1 0 0 1 1 0" transform="matrix(4,0,0,4,900,876.6309)" fill="#fff" stroke="#4ea397" stroke-width="0.5" ecmeta_series_index="0" ecmeta_data_index="7" ecmeta_ssr_type="chart" class="zr0-cls-3"></path>
<path d="M1 0A1 1 0 1 1 1 -0.1A1 1 0 0 1 1 0" transform="matrix(4,0,0,4,980,891.2117)" fill="#fff" stroke="#4ea397" stroke-width="0.5" ecmeta_series_index="0" ecmeta_data_index="8" ecmeta_ssr_type="chart" class="zr0-cls-3"></path>
<path d="M1 0A1 1 0 1 1 1 -0.1A1 1 0 0 1 1 0" transform="matrix(4,0,0,4,1060,972.4553)" fill="#fff" stroke="#4ea397" stroke-width="0.5" ecmeta_series_index="0" ecmeta_data_index="9" ecmeta_ssr_type="chart" class="zr0-cls-3"></path>
<path d="M1 0A1 1 0 1 1 1 -0.1A1 1 0 0 1 1 0" transform="matrix(4,0,0,4,1140,993.3033)" fill="#fff" stroke="#4ea397" stroke-width="0.5" ecmeta_series_index="0" ecmeta_data_index="10" ecmeta_ssr_type="chart" class="zr0-cls-3"></path>
<path d="M1 0A1 1 0 1 1 1 -0.1A1 1 0 0 1 1 0" transform="matrix(4,0,0,4,1220,1024.2294)" fill="#fff" stroke="#4ea397" stroke-width="0.5" ecmeta_series_index="0" ecmeta_data_index="11" ecmeta_ssr_type="chart" class="zr0-cls-3"></path>
<path d="M1 0A1 1 0 1 1 1 -0.1A1 1 0 0 1 1 0" transform="matrix(4,0,0,4,1300,1036.3634)" fill="#fff" stroke="#4ea397" stroke-width="0.5" ecmeta_series_index="0" ecmeta_data_index="12" ecmeta_ssr_type="chart" class="zr0-cls-3"></path>
<path d="M1 0A1 1 0 1 1 1 -0.1A1 1 0 0 1 1 0" transform="matrix(4,0,0,4,1380,1043.202)" fill="#fff" stroke="#4ea397" stroke-width="0.5" ecmeta_series_index="0" ecmeta_data_index="13" ecmeta_ssr_type="chart" class="zr0-cls-3"></path>
<path d="M1 0A1 1 0 1 1 1 -0.1A1 1 0 0 1 1 0" transform="matrix(4,0,0,4,1460,1084.2853)" fill="#fff" stroke="#4ea397" stroke-width="0.5" ecmeta_series_index="0" ecmeta_data_index="14" ecmeta_ssr_type="chart" class="zr0-cls-3"></path>
<path d="M1 0A1 1 0 1 1 1 -0.1A1 1 0 0 1 1 0" transform="matrix(4,0,0,4,1540,1060.4529)" fill="#fff" stroke="#4ea397" stroke-width="0.5" ecmeta_series_index="0" ecmeta_data_index="15" ecmeta_ssr_type="chart" class="zr0-cls-3"></path>
<path d="M1 0A1 1 0 1 1 1 -0.1A1 1 0 0 1 1 0" transform="matrix(4,0,0,4,1620,1055.7512)" fill="#fff" stroke="#4ea397" stroke-width="0.5" ecmeta_series_index="0" ecmeta_data_index="16" ecmeta_ssr_type="chart" class="zr0-cls-3"></path>
<path d="M1 0A1 1 0 1 1 1 -0.1A1 1 0 0 1 1 0" transform="matrix(4,0,0,4,1700,1074.7322)" fill="#fff" stroke="#4ea397" stroke-width="0.5" ecmeta_series_index="0" ecmeta_data_index="17" ecmeta_ssr_type="chart" class="zr0-cls-3"></path>
<path d="M1 0A1 1 0 1 1 1 -0.1A1 1 0 0 1 1 0" transform="matrix(4,0,0,4,1780,1078.209)" fill="#fff" stroke="#4ea397" stroke-width="0.5" ecmeta_series_index="0" ecmeta_data_index="18" ecmeta_ssr_type="chart" class="zr0-cls-3"></path>
<path d="M1 0A1 1 0 1 1 1 -0.1A1 1 0 0 1 1 0" transform="matrix(4,0,0,4,1860,1098.1885)" fill="#fff" stroke="#4ea397" stroke-width="0.5" ecmeta_series_index="0" ecmeta_data_index="19" ecmeta_ssr_type="chart" class="zr0-cls-3"></path>
<path d="M1 0A1 1 0 1 1 1 -0.1A1 1 0 0 1 1 0" transform="matrix(4,0,0,4,1940,1092.8177)" fill="#fff" stroke="#4ea397" stroke-width="0.5" ecmeta_series_index="0" ecmeta_data_index="20" ecmeta_ssr_type="chart" class="zr0-cls-3"></path>
<path d="M1 0A1 1 0 1 1 1 -0.1A1 1 0 0 1 1 0" transform="matrix(4,0,0,4,2020,1138.7435)" fill="#fff" stroke="#4ea397" stroke-width="0.5" ecmeta_series_index="0" ecmeta_data_index="21" ecmeta_ssr_type="chart" class="zr0-cls-3"></path>
<path d="M1 0A1 1 0 1 1 1 -0.1A1 1 0 0 1 1 0" transform="matrix(4,0,0,4,2100,1114.2463)" fill="#fff" stroke="#4ea397" stroke-width="0.5" ecmeta_series_index="0" ecmeta_data_index="22" ecmeta_ssr_type="chart" class="zr0-cls-3"></path>
<path d="M1 0A1 1 0 1 1 1 -0.1A1 1 0 0 1 1 0" transform="matrix(4,0,0,4,2180,1139.7233)" fill="#fff" stroke="#4ea397" stroke-width="0.5" ecmeta_series_index="0" ecmeta_data_index="23" ecmeta_ssr_type="chart" class="zr0-cls-3"></path>
<path d="M1 0A1 1 0 1 1 1 -0.1A1 1 0 0 1 1 0" transform="matrix(4,0,0,4,2260,1109.5173)" fill="#fff" stroke="#4ea397" stroke-width="0.5" ecmeta_series_index="0" ecmeta_data_index="24" ecmeta_ssr_type="chart" class="zr0-cls-3"></path>
<path d="M1 0A1 1 0 1 1 1 -0.1A1 1 0 0 1 1 0" transform="matrix(4,0,0,4,2340,1123.3007)" fill="#fff" stroke="#4ea397" stroke-width="0.5" ecmeta_series_index="0" ecmeta_data_index="25" ecmeta_ssr_type="chart" class="zr0-cls-3"></path>
<path d="M1 0A1 1 0 1 1 1 -0.1A1 1 0 0 1 1 0" transform="matrix(4,0,0,4,2420,1154.2654)" fill="#fff" stroke="#4ea397" stroke-width="0.5" ecmeta_series_index="0" ecmeta_data_index="26" ecmeta_ssr_type="chart" class="zr0-cls-3"></path>
<path d="M1 0A1 1 0 1 1 1 -0.1A1 1 0 0 1 1 0" transform="matrix(4,0,0,4,2500,1124.88)" fill="#fff" stroke="#4ea397" stroke-width="0.5" ecmeta_series_index="0" ecmeta_data_index="27" ecmeta_ssr_type="chart" class="zr0-cls-3"></path>
<path d="M1 0A1 1 0 1 1 1 -0.1A1 1 0 0 1 1 0" transform="matrix(4,0,0,4,2580,1136.514)" fill="#fff" stroke="#4ea397" stroke-width="0.5" ecmeta_series_index="0" ecmeta_data_index="28" ecmeta_ssr_type="chart" class="zr0-cls-3"></path>
<path d="M1 0A1 1 0 1 1 1 -0.1A1 1 0 0 1 1 0" transform="matrix(4,0,0,4,2660,1122.5969)" fill="#fff" stroke="#4ea397" stroke-width="0.5" ecmeta_series_index="0" ecmeta_data_index="29" ecmeta_ssr_type="chart" class="zr0-cls-3"></path>
<path d="M1 0A1 1 0 1 1 1 -0.1A1 1 0 0 1 1 0" transform="matrix(4,0,0,4,340,1140)" fill="#fff" stroke="#22c3aa" stroke-width="0.5" ecmeta_series_index="1" ecmeta_data_index="0" ecmeta_ssr_type="chart" class="zr0-cls-3"></path>
<path d="M1 0A1 1 0 1 1 1 -0.1A1 1 0 0 1 1 0" transform="matrix(4,0,0,4,420,490.876)" fill="#fff" stroke="#22c3aa" stroke-width="0.5" ecmeta_series_index="1" ecmeta_data_index="1" ecmeta_ssr_type="chart" class="zr0-cls-3"></path>
<path d="M1 0A1 1 0 1 1 1 -0.1A1 1 0 0 1 1 0" transform="matrix(4,0,0,4,500,313.8001)" fill="#fff" stroke="#22c3aa" stroke-width="0.5" ecmeta_series_index="1" ecmeta_data_index="2" ecmeta_ssr_type="chart" class="zr0-cls-3"></path>
<path d="M1 0A1 1 0 1 1 1 -0.1A1 1 0 0 1 1 0" transform="matrix(4,0,0,4,580,614.2096)" fill="#fff" stroke="#22c3aa" stroke-width="0.5" ecmeta_series_index="1" ecmeta_data_index="3" ecmeta_ssr_type="chart" class="zr0-cls-3"></path>
<path d="M1 0A1 1 0 1 1 1 -0.1A1 1 0 0 1 1 0" transform="matrix(4,0,0,4,660,1140)" fill="#fff" stroke="#22c3aa" stroke-width="0.5" ecmeta_series_index="1" ecmeta_data_index="4" ecmeta_ssr_type="chart" class="zr0-cls-3"></path>
<path d="M1 0A1 1 0 1 1 1 -0.1A1 1 0 0 1 1 0" transform="matrix(4,0,0,4,740,1565.8903)" fill="#fff" stroke="#22c3aa" stroke-width="0.5" ecmeta_series_index="1" ecmeta_data_index="5" ecmeta_ssr_type="chart" class="zr0-cls-3"></path>
<path d="M1 0A1 1 0 1 1 1 -0.1A1 1 0 0 1 1 0" transform="matrix(4,0,0,4,820,1682.0697)" fill="#fff" stroke="#22c3aa" stroke-width="0.5" ecmeta_series_index="1" ecmeta_data_index="6" ecmeta_ssr_type="chart" class="zr0-cls-3"></path>
<path d="M1 0A1 1 0 1 1 1 -0.1A1 1 0 0 1 1 0" transform="matrix(4,0,0,4,900,1484.9709)" fill="#fff" stroke="#22c3aa" stroke-width="0.5" ecmeta_series_index="1" ecmeta_data_index="7" ecmeta_ssr_type="chart" class="zr0-cls-3"></path>
<path d="M1 0A1 1 0 1 1 1 -0.1A1 1 0 0 1 1 0" transform="matrix(4,0,0,4,980,1139.9999)" fill="#fff" stroke="#22c3aa" stroke-width="0.5" ecmeta_series_index="1" ecmeta_data_index="8" ecmeta_ssr_type="chart" class="zr0-cls-3"></path>
<path d="M1 0A1 1 0 1 1 1 -0.1A1 1 0 0 1 1 0" transform="matrix(4,0,0,4,1060,860.5735)" fill="#fff" stroke="#22c3aa" stroke-width="0.5" ecmeta_series_index="1" ecmeta_data_index="9" ecmeta_ssr_type="chart" class="zr0-cls-3"></path>
<path d="M1 0A1 1 0 1 1 1 -0.1A1 1 0 0 1 1 0" transform="matrix(4,0,0,4,1140,784.3481)" fill="#fff" stroke="#22c3aa" stroke-width="0.5" ecmeta_series_index="1" ecmeta_data_index="10" ecmeta_ssr_type="chart" class="zr0-cls-3"></path>
<path d="M1 0A1 1 0 1 1 1 -0.1A1 1 0 0 1 1 0" transform="matrix(4,0,0,4,1220,913.6647)" fill="#fff" stroke="#22c3aa" stroke-width="0.5" ecmeta_series_index="1" ecmeta_data_index="11" ecmeta_ssr_type="chart" class="zr0-cls-3"></path>
<path d="M1 0A1 1 0 1 1 1 -0.1A1 1 0 0 1 1 0" transform="matrix(4,0,0,4,1300,1140)" fill="#fff" stroke="#22c3aa" stroke-width="0.5" ecmeta_series_index="1" ecmeta_data_index="12" ecmeta_ssr_type="chart" class="zr0-cls-3"></path>
<path d="M1 0A1 1 0 1 1 1 -0.1A1 1 0 0 1 1 0" transform="matrix(4,0,0,4,1380,1323.3318)" fill="#fff" stroke="#22c3aa" stroke-width="0.5" ecmeta_series_index="1" ecmeta_data_index="13" ecmeta_ssr_type="chart" class="zr0-cls-3"></path>
<path d="M1 0A1 1 0 1 1 1 -0.1A1 1 0 0 1 1 0" transform="matrix(4,0,0,4,1460,1373.3431)" fill="#fff" stroke="#22c3aa" stroke-width="0.5" ecmeta_series_index="1" ecmeta_data_index="14" ecmeta_ssr_type="chart" class="zr0-cls-3"></path>
<path d="M1 0A1 1 0 1 1 1 -0.1A1 1 0 0 1 1 0" transform="matrix(4,0,0,4,1540,1288.4987)" fill="#fff" stroke="#22c3aa" stroke-width="0.5" ecmeta_series_index="1" ecmeta_data_index="15" ecmeta_ssr_type="chart" class="zr0-cls-3"></path>
<path d="M1 0A1 1 0 1 1 1 -0.1A1 1 0 0 1 1 0" transform="matrix(4,0,0,4,1620,1139.9999)" fill="#fff" stroke="#22c3aa" stroke-width="0.5" ecmeta_series_index="1" ecmeta_data_index="16" ecmeta_ssr_type="chart" class="zr0-cls-3"></path>
<path d="M1 0A1 1 0 1 1 1 -0.1A1 1 0 0 1 1 0" transform="matrix(4,0,0,4,1700,1019.716)" fill="#fff" stroke="#22c3aa" stroke-width="0.5" ecmeta_series_index="1" ecmeta_data_index="17" ecmeta_ssr_type="chart" class="zr0-cls-3"></path>
<path d="M1 0A1 1 0 1 1 1 -0.1A1 1 0 0 1 1 0" transform="matrix(4,0,0,4,1780,986.9036)" fill="#fff" stroke="#22c3aa" stroke-width="0.5" ecmeta_series_index="1" ecmeta_data_index="18" ecmeta_ssr_type="chart" class="zr0-cls-3"></path>
<path d="M1 0A1 1 0 1 1 1 -0.1A1 1 0 0 1 1 0" transform="matrix(4,0,0,4,1860,1042.5701)" fill="#fff" stroke="#22c3aa" stroke-width="0.5" ecmeta_series_index="1" ecmeta_data_index="19" ecmeta_ssr_type="chart" class="zr0-cls-3"></path>
<path d="M1 0A1 1 0 1 1 1 -0.1A1 1 0 0 1 1 0" transform="matrix(4,0,0,4,1940,1140.0001)" fill="#fff" stroke="#22c3aa" stroke-width="0.5" ecmeta_series_index="1" ecmeta_data_index="20" ecmeta_ssr_type="chart" class="zr0-cls-3"></path>
<path d="M1 0A1 1 0 1 1 1 -0.1A1 1 0 0 1 1 0" transform="matrix(4,0,0,4,2020,1218.9183)" fill="#fff" stroke="#22c3aa" stroke-width="0.5" ecmeta_series_index="1" ecmeta_data_index="21" ecmeta_ssr_type="chart" class="zr0-cls-3"></path>
<path d="M1 0A1 1 0 1 1 1 -0.1A1 1 0 0 1 1 0" transform="matrix(4,0,0,4,2100,1240.4465)" fill="#fff" stroke="#22c3aa" stroke-width="0.5" ecmeta_series_index="1" ecmeta_data_index="22" ecmeta_ssr_type="chart" class="zr0-cls-3"></path>
<path d="M1 0A1 1 0 1 1 1 -0.1A1 1 0 0 1 1 0" transform="matrix(4,0,0,4,2180,1203.9238)" fill="#fff" stroke="#22c3aa" stroke-width="0.5" ecmeta_series_index="1" ecmeta_data_index="23" ecmeta_ssr_type="chart" class="zr0-cls-3"></path>
<path d="M1 0A1 1 0 1 1 1 -0.1A1 1 0 0 1 1 0" transform="matrix(4,0,0,4,2260,1140)" fill="#fff" stroke="#22c3aa" stroke-width="0.5" ecmeta_series_index="1" ecmeta_data_index="24" ecmeta_ssr_type="chart" class="zr0-cls-3"></path>
<path d="M1 0A1 1 0 1 1 1 -0.1A1 1 0 0 1 1 0" transform="matrix(4,0,0,4,2340,1088.2217)" fill="#fff" stroke="#22c3aa" stroke-width="0.5" ecmeta_series_index="1" ecmeta_data_index="25" ecmeta_ssr_type="chart" class="zr0-cls-3"></path>
<path d="M1 0A1 1 0 1 1 1 -0.1A1 1 0 0 1 1 0" transform="matrix(4,0,0,4,2420,1074.097)" fill="#fff" stroke="#22c3aa" stroke-width="0.5" ecmeta_series_index="1" ecmeta_data_index="26" ecmeta_ssr_type="chart" class="zr0-cls-3"></path>
<path d="M1 0A1 1 0 1 1 1 -0.1A1 1 0 0 1 1 0" transform="matrix(4,0,0,4,2500,1098.0597)" fill="#fff" stroke="#22c3aa" stroke-width="0.5" ecmeta_series_index="1" ecmeta_data_index="27" ecmeta_ssr_type="chart" class="zr0-cls-3"></path>
<path d="M1 0A1 1 0 1 1 1 -0.1A1 1 0 0 1 1 0" transform="matrix(4,0,0,4,2580,1140.0001)" fill="#fff" stroke="#22c3aa" stroke-width="0.5" ecmeta_series_index="1" ecmeta_data_index="28" ecmeta_ssr_type="chart" class="zr0-cls-3"></path>
<path d="M1 0A1 1 0 1 1 1 -0.1A1 1 0 0 1 1 0" transform="matrix(4,0,0,4,2660,1173.9717)" fill="#fff" stroke="#22c3aa" stroke-width="0.5" ecmeta_series_index="1" ecmeta_data_index="29" ecmeta_ssr_type="chart" class="zr0-cls-3"></path>
<path d="M-808 -5l1616 0l0 110l-1616 0Z" transform="translate(1500 5)" fill="rgb(0,0,0)" fill-opacity="0" stroke="#ccc" stroke-width="0" class="zr0-cls-0"></path>
<text dominant-baseline="central" text-anchor="middle" style="font-size:100px;font-family:sans-serif;font-weight:bold;" xml:space="preserve" y="50" transform="translate(1500 5)" fill="#666666">Damped Oscillation Centered at 0°</text>
<defs >
<clipPath id="zr0-c0">
<path d="M298 118.5l24004 0l0 20403l-24004 0Z" fill="#000" class="zr0-cls-1"></path>
</clipPath>
<clipPath id="zr0-c1">
<path d="M297 117.5l2406 0l0 2045l-2406 0Z" fill="#000" class="zr0-cls-1"></path>
</clipPath>
</defs>
<style ><![CDATA[
.zr0-cls-0:hover {
pointer-events:none;
}
.zr0-cls-1:hover {
cursor:pointer;
fill:rgba(0,0,0,1);
}
.zr0-cls-2:hover {
cursor:pointer;
}
.zr0-cls-3:hover {
cursor:pointer;
fill:rgba(255,255,255,1);
}

]]>

</style>
</svg>